<?xml version="1.0" standalone="no"?><!DOCTYPE svg PUBLIC "-//W3C//DTD SVG 1.1//EN" "http://www.w3.org/Graphics/SVG/1.1/DTD/svg11.dtd"><svg t="1735553798097" class="icon" viewBox="0 0 1303 1024" version="1.1" xmlns="http://www.w3.org/2000/svg" p-id="4371" xmlns:xlink="http://www.w3.org/1999/xlink" width="254.4921875" height="200"><path d="M924.951273 781.498182l22.714182-10.24 24.296727 20.759273c-36.398545 21.410909-69.632 37.608727-99.607273 48.500363 18.711273 37.236364 40.029091 73.076364 63.953455 107.333818 116.922182-39.749818 215.412364-91.694545 295.563636-155.834181 30.533818-299.752727-80.058182-553.611636-172.962909-690.176A932.957091 932.957091 0 0 0 817.058909 23.924364c-11.077818 20.666182-21.597091 42.449455-31.371636 65.442909A942.266182 942.266182 0 0 0 665.041455 79.127273L651.636364 79.220364 638.045091 79.127273c-32.581818 0.186182-72.797091 3.537455-120.645818 10.24a820.968727 820.968727 0 0 0-31.371637-65.442909c-85.829818 15.546182-166.446545 41.518545-241.757091 78.010181C151.272727 238.312727 40.773818 492.357818 71.307636 792.017455c80.058182 64.232727 178.641455 116.177455 295.563637 155.834181 23.831273-34.257455 45.149091-70.097455 63.953454-107.333818a617.099636 617.099636 0 0 1-99.607272-48.500363l24.203636-20.759273 22.807273 10.24c91.136 39.377455 182.178909 59.019636 273.314909 59.019636 91.136 0 182.272-19.549091 273.408-59.019636z m-78.475637-371.805091c59.205818 0 105.006545 55.482182 105.006546 121.856s-45.335273 122.135273-105.006546 122.135273c-59.671273 0-105.378909-55.761455-105.378909-122.135273 0-66.466909 46.266182-121.949091 105.378909-121.949091z m-389.771636 0c59.112727 0 105.378909 55.482182 105.378909 121.856s-45.614545 122.135273-105.378909 122.135273c-59.764364 0-105.006545-55.761455-105.006545-122.135273 0-66.466909 45.800727-121.949091 105.006545-121.949091z" p-id="4372"></path></svg>